<svg id="visual" viewBox="0 0 900 600" width="900" height="600" xmlns="http://www.w3.org/2000/svg" xmlns:xlink="http://www.w3.org/1999/xlink" version="1.1"><rect x="0" y="0" width="900" height="600" fill="#001220"></rect><defs><linearGradient id="grad1_0" x1="33.3%" y1="100%" x2="100%" y2="0%"><stop offset="20%" stop-color="#001220" stop-opacity="1"></stop><stop offset="80%" stop-color="#001220" stop-opacity="1"></stop></linearGradient></defs><defs><linearGradient id="grad2_0" x1="0%" y1="100%" x2="66.7%" y2="0%"><stop offset="20%" stop-color="#001220" stop-opacity="1"></stop><stop offset="80%" stop-color="#001220" stop-opacity="1"></stop></linearGradient></defs><g transform="translate(900, 600)"><path d="M-486.7 0C-483.4 -66.3 -480 -132.7 -449.7 -186.3C-419.4 -239.9 -362.2 -280.7 -309.7 -309.7C-257.3 -338.7 -209.6 -355.9 -158.8 -383.4C-108 -410.9 -54 -448.8 0 -486.7L0 0Z" fill="#FBAE3C"></path></g><g transform="translate(0, 0)"><path d="M486.7 0C472.3 59.2 457.9 118.5 437.9 181.4C417.9 244.3 392.4 311 344.2 344.2C295.9 377.4 224.9 377.2 163.8 395.4C102.6 413.6 51.3 450.2 0 486.7L0 0Z" fill="#FBAE3C"></path></g></svg>